<mxfile host="app.diagrams.net" agent="Mozilla/5.0 (Windows NT 10.0; Win64; x64) AppleWebKit/537.36 (KHTML, like Gecko) Chrome/130.0.0.0 Safari/537.36" version="24.8.4">
  <diagram name="Page-1" id="rC8l3pxXZCWOZHpNTmN_">
    <mxGraphModel grid="1" page="1" gridSize="10" guides="1" tooltips="1" connect="1" arrows="1" fold="1" pageScale="1" pageWidth="850" pageHeight="1100" math="0" shadow="0">
      <root>
        <mxCell id="0" />
        <mxCell id="1" parent="0" />
        <mxCell id="y_qlQ7_xJsg6_kvLNrFm-1" value="Railway&amp;nbsp; Reservation System" style="shape=umlFrame;whiteSpace=wrap;html=1;pointerEvents=0;width=180;height=30;" vertex="1" parent="1">
          <mxGeometry x="205" y="52" width="445" height="638" as="geometry" />
        </mxCell>
        <mxCell id="y_qlQ7_xJsg6_kvLNrFm-6" value="" style="edgeStyle=orthogonalEdgeStyle;rounded=0;orthogonalLoop=1;jettySize=auto;html=1;" edge="1" parent="1" source="y_qlQ7_xJsg6_kvLNrFm-2" target="y_qlQ7_xJsg6_kvLNrFm-4">
          <mxGeometry relative="1" as="geometry" />
        </mxCell>
        <mxCell id="y_qlQ7_xJsg6_kvLNrFm-34" value="" style="edgeStyle=orthogonalEdgeStyle;rounded=0;orthogonalLoop=1;jettySize=auto;html=1;" edge="1" parent="1" source="y_qlQ7_xJsg6_kvLNrFm-2" target="y_qlQ7_xJsg6_kvLNrFm-7">
          <mxGeometry relative="1" as="geometry" />
        </mxCell>
        <mxCell id="y_qlQ7_xJsg6_kvLNrFm-2" value="" style="ellipse;html=1;shape=startState;fillColor=#000000;strokeColor=#ff0000;" vertex="1" parent="1">
          <mxGeometry x="395" y="70" width="15" height="20" as="geometry" />
        </mxCell>
        <mxCell id="y_qlQ7_xJsg6_kvLNrFm-8" value="" style="edgeStyle=orthogonalEdgeStyle;rounded=0;orthogonalLoop=1;jettySize=auto;html=1;" edge="1" parent="1" source="y_qlQ7_xJsg6_kvLNrFm-4" target="y_qlQ7_xJsg6_kvLNrFm-7">
          <mxGeometry relative="1" as="geometry" />
        </mxCell>
        <mxCell id="y_qlQ7_xJsg6_kvLNrFm-4" value="Idle" style="rounded=1;whiteSpace=wrap;html=1;arcSize=40;fontColor=#000000;fillColor=#ffffc0;strokeColor=#ff0000;" vertex="1" parent="1">
          <mxGeometry x="342.5" y="120" width="120" height="30" as="geometry" />
        </mxCell>
        <mxCell id="y_qlQ7_xJsg6_kvLNrFm-7" value="Seraching for Trains" style="rounded=1;whiteSpace=wrap;html=1;arcSize=40;fontColor=#000000;fillColor=#ffffc0;strokeColor=#ff0000;" vertex="1" parent="1">
          <mxGeometry x="342.5" y="189" width="120" height="30" as="geometry" />
        </mxCell>
        <mxCell id="y_qlQ7_xJsg6_kvLNrFm-20" value="" style="edgeStyle=orthogonalEdgeStyle;rounded=0;orthogonalLoop=1;jettySize=auto;html=1;" edge="1" parent="1" source="y_qlQ7_xJsg6_kvLNrFm-13" target="y_qlQ7_xJsg6_kvLNrFm-19">
          <mxGeometry relative="1" as="geometry" />
        </mxCell>
        <mxCell id="y_qlQ7_xJsg6_kvLNrFm-13" value="Train available" style="rounded=1;whiteSpace=wrap;html=1;arcSize=40;fontColor=#000000;fillColor=#ffffc0;strokeColor=#ff0000;" vertex="1" parent="1">
          <mxGeometry x="270" y="280" width="120" height="30" as="geometry" />
        </mxCell>
        <mxCell id="y_qlQ7_xJsg6_kvLNrFm-48" value="" style="edgeStyle=orthogonalEdgeStyle;rounded=0;orthogonalLoop=1;jettySize=auto;html=1;" edge="1" parent="1" source="y_qlQ7_xJsg6_kvLNrFm-15" target="y_qlQ7_xJsg6_kvLNrFm-47">
          <mxGeometry relative="1" as="geometry" />
        </mxCell>
        <mxCell id="y_qlQ7_xJsg6_kvLNrFm-15" value="Train not available" style="rounded=1;whiteSpace=wrap;html=1;arcSize=40;fontColor=#000000;fillColor=#ffffc0;strokeColor=#ff0000;" vertex="1" parent="1">
          <mxGeometry x="440" y="280" width="120" height="30" as="geometry" />
        </mxCell>
        <mxCell id="y_qlQ7_xJsg6_kvLNrFm-22" value="" style="edgeStyle=orthogonalEdgeStyle;rounded=0;orthogonalLoop=1;jettySize=auto;html=1;" edge="1" parent="1" source="y_qlQ7_xJsg6_kvLNrFm-19" target="y_qlQ7_xJsg6_kvLNrFm-21">
          <mxGeometry relative="1" as="geometry" />
        </mxCell>
        <mxCell id="y_qlQ7_xJsg6_kvLNrFm-19" value="Reservation created" style="rounded=1;whiteSpace=wrap;html=1;arcSize=40;fontColor=#000000;fillColor=#ffffc0;strokeColor=#ff0000;" vertex="1" parent="1">
          <mxGeometry x="270" y="340" width="120" height="30" as="geometry" />
        </mxCell>
        <mxCell id="y_qlQ7_xJsg6_kvLNrFm-24" value="" style="edgeStyle=orthogonalEdgeStyle;rounded=0;orthogonalLoop=1;jettySize=auto;html=1;" edge="1" parent="1" source="y_qlQ7_xJsg6_kvLNrFm-21" target="y_qlQ7_xJsg6_kvLNrFm-23">
          <mxGeometry relative="1" as="geometry" />
        </mxCell>
        <mxCell id="y_qlQ7_xJsg6_kvLNrFm-21" value="Payment Pending" style="rounded=1;whiteSpace=wrap;html=1;arcSize=40;fontColor=#000000;fillColor=#ffffc0;strokeColor=#ff0000;" vertex="1" parent="1">
          <mxGeometry x="270" y="400" width="120" height="30" as="geometry" />
        </mxCell>
        <mxCell id="y_qlQ7_xJsg6_kvLNrFm-26" value="" style="edgeStyle=orthogonalEdgeStyle;rounded=0;orthogonalLoop=1;jettySize=auto;html=1;" edge="1" parent="1" source="y_qlQ7_xJsg6_kvLNrFm-23" target="y_qlQ7_xJsg6_kvLNrFm-25">
          <mxGeometry relative="1" as="geometry" />
        </mxCell>
        <mxCell id="y_qlQ7_xJsg6_kvLNrFm-23" value="Payment completed" style="rounded=1;whiteSpace=wrap;html=1;arcSize=40;fontColor=#000000;fillColor=#ffffc0;strokeColor=#ff0000;" vertex="1" parent="1">
          <mxGeometry x="270" y="460" width="120" height="30" as="geometry" />
        </mxCell>
        <mxCell id="y_qlQ7_xJsg6_kvLNrFm-28" value="" style="edgeStyle=orthogonalEdgeStyle;rounded=0;orthogonalLoop=1;jettySize=auto;html=1;" edge="1" parent="1" source="y_qlQ7_xJsg6_kvLNrFm-25" target="y_qlQ7_xJsg6_kvLNrFm-27">
          <mxGeometry relative="1" as="geometry" />
        </mxCell>
        <mxCell id="y_qlQ7_xJsg6_kvLNrFm-25" value="Ticket Printed" style="rounded=1;whiteSpace=wrap;html=1;arcSize=40;fontColor=#000000;fillColor=#ffffc0;strokeColor=#ff0000;" vertex="1" parent="1">
          <mxGeometry x="480" y="430" width="120" height="30" as="geometry" />
        </mxCell>
        <mxCell id="y_qlQ7_xJsg6_kvLNrFm-30" value="" style="edgeStyle=orthogonalEdgeStyle;rounded=0;orthogonalLoop=1;jettySize=auto;html=1;" edge="1" parent="1" source="y_qlQ7_xJsg6_kvLNrFm-27" target="y_qlQ7_xJsg6_kvLNrFm-29">
          <mxGeometry relative="1" as="geometry" />
        </mxCell>
        <mxCell id="y_qlQ7_xJsg6_kvLNrFm-27" value="Boarding" style="rounded=1;whiteSpace=wrap;html=1;arcSize=40;fontColor=#000000;fillColor=#ffffc0;strokeColor=#ff0000;" vertex="1" parent="1">
          <mxGeometry x="480" y="490" width="120" height="30" as="geometry" />
        </mxCell>
        <mxCell id="y_qlQ7_xJsg6_kvLNrFm-43" value="" style="edgeStyle=orthogonalEdgeStyle;rounded=0;orthogonalLoop=1;jettySize=auto;html=1;" edge="1" parent="1" source="y_qlQ7_xJsg6_kvLNrFm-29" target="y_qlQ7_xJsg6_kvLNrFm-42">
          <mxGeometry relative="1" as="geometry" />
        </mxCell>
        <mxCell id="y_qlQ7_xJsg6_kvLNrFm-29" value="Journey completed" style="rounded=1;whiteSpace=wrap;html=1;arcSize=40;fontColor=#000000;fillColor=#ffffc0;strokeColor=#ff0000;" vertex="1" parent="1">
          <mxGeometry x="480" y="560" width="120" height="30" as="geometry" />
        </mxCell>
        <mxCell id="y_qlQ7_xJsg6_kvLNrFm-32" value="" style="endArrow=block;startArrow=block;endFill=1;startFill=1;html=1;rounded=0;entryX=0.5;entryY=0;entryDx=0;entryDy=0;" edge="1" parent="1" target="y_qlQ7_xJsg6_kvLNrFm-15">
          <mxGeometry width="160" relative="1" as="geometry">
            <mxPoint x="330" y="280" as="sourcePoint" />
            <mxPoint x="490" y="280" as="targetPoint" />
            <Array as="points">
              <mxPoint x="330" y="240" />
              <mxPoint x="400" y="240" />
              <mxPoint x="500" y="240" />
            </Array>
          </mxGeometry>
        </mxCell>
        <mxCell id="y_qlQ7_xJsg6_kvLNrFm-36" value="" style="endArrow=none;html=1;rounded=0;entryX=0.5;entryY=1;entryDx=0;entryDy=0;" edge="1" parent="1" target="y_qlQ7_xJsg6_kvLNrFm-7">
          <mxGeometry width="50" height="50" relative="1" as="geometry">
            <mxPoint x="403" y="240" as="sourcePoint" />
            <mxPoint x="420" y="180" as="targetPoint" />
          </mxGeometry>
        </mxCell>
        <mxCell id="y_qlQ7_xJsg6_kvLNrFm-37" value="Available" style="text;html=1;align=center;verticalAlign=middle;resizable=0;points=[];autosize=1;strokeColor=none;fillColor=none;" vertex="1" parent="1">
          <mxGeometry x="395" y="218" width="70" height="30" as="geometry" />
        </mxCell>
        <mxCell id="y_qlQ7_xJsg6_kvLNrFm-38" value="&amp;nbsp; &amp;nbsp; &amp;nbsp; &amp;nbsp; &amp;nbsp; &amp;nbsp; &amp;nbsp; reservation" style="text;html=1;align=center;verticalAlign=middle;resizable=0;points=[];autosize=1;strokeColor=none;fillColor=none;" vertex="1" parent="1">
          <mxGeometry x="275" y="308" width="130" height="30" as="geometry" />
        </mxCell>
        <mxCell id="y_qlQ7_xJsg6_kvLNrFm-39" value="&lt;div&gt;&amp;nbsp; &amp;nbsp; &amp;nbsp; &amp;nbsp; &amp;nbsp; payment&lt;/div&gt;" style="text;html=1;align=center;verticalAlign=middle;resizable=0;points=[];autosize=1;strokeColor=none;fillColor=none;" vertex="1" parent="1">
          <mxGeometry x="290" y="368" width="100" height="30" as="geometry" />
        </mxCell>
        <mxCell id="y_qlQ7_xJsg6_kvLNrFm-40" value="&amp;nbsp; &amp;nbsp;process" style="text;html=1;align=center;verticalAlign=middle;resizable=0;points=[];autosize=1;strokeColor=none;fillColor=none;" vertex="1" parent="1">
          <mxGeometry x="310" y="428" width="80" height="30" as="geometry" />
        </mxCell>
        <mxCell id="y_qlQ7_xJsg6_kvLNrFm-41" value="&amp;nbsp; &amp;nbsp; journey" style="text;html=1;align=center;verticalAlign=middle;resizable=0;points=[];autosize=1;strokeColor=none;fillColor=none;" vertex="1" parent="1">
          <mxGeometry x="520" y="518" width="80" height="30" as="geometry" />
        </mxCell>
        <mxCell id="y_qlQ7_xJsg6_kvLNrFm-46" value="" style="edgeStyle=orthogonalEdgeStyle;rounded=0;orthogonalLoop=1;jettySize=auto;html=1;" edge="1" parent="1" source="y_qlQ7_xJsg6_kvLNrFm-42" target="y_qlQ7_xJsg6_kvLNrFm-45">
          <mxGeometry relative="1" as="geometry" />
        </mxCell>
        <mxCell id="y_qlQ7_xJsg6_kvLNrFm-42" value="Ticket Expired" style="rounded=1;whiteSpace=wrap;html=1;arcSize=40;fontColor=#000000;fillColor=#ffffc0;strokeColor=#ff0000;" vertex="1" parent="1">
          <mxGeometry x="480" y="620" width="120" height="30" as="geometry" />
        </mxCell>
        <mxCell id="y_qlQ7_xJsg6_kvLNrFm-44" value="validity" style="text;html=1;align=center;verticalAlign=middle;resizable=0;points=[];autosize=1;strokeColor=none;fillColor=none;" vertex="1" parent="1">
          <mxGeometry x="530" y="588" width="60" height="30" as="geometry" />
        </mxCell>
        <mxCell id="y_qlQ7_xJsg6_kvLNrFm-45" value="" style="ellipse;html=1;shape=endState;fillColor=#000000;strokeColor=#ff0000;" vertex="1" parent="1">
          <mxGeometry x="530" y="670" width="20" height="20" as="geometry" />
        </mxCell>
        <mxCell id="y_qlQ7_xJsg6_kvLNrFm-51" value="" style="edgeStyle=orthogonalEdgeStyle;rounded=0;orthogonalLoop=1;jettySize=auto;html=1;entryX=1;entryY=0.5;entryDx=0;entryDy=0;exitX=1;exitY=0.5;exitDx=0;exitDy=0;" edge="1" parent="1" source="y_qlQ7_xJsg6_kvLNrFm-47" target="y_qlQ7_xJsg6_kvLNrFm-45">
          <mxGeometry relative="1" as="geometry">
            <mxPoint x="640" y="385" as="targetPoint" />
            <Array as="points">
              <mxPoint x="630" y="385" />
              <mxPoint x="630" y="680" />
            </Array>
          </mxGeometry>
        </mxCell>
        <mxCell id="y_qlQ7_xJsg6_kvLNrFm-47" value="Not able to reserve train" style="rounded=1;whiteSpace=wrap;html=1;arcSize=40;fontColor=#000000;fillColor=#ffffc0;strokeColor=#ff0000;" vertex="1" parent="1">
          <mxGeometry x="440" y="370" width="120" height="30" as="geometry" />
        </mxCell>
        <mxCell id="y_qlQ7_xJsg6_kvLNrFm-49" value="&amp;nbsp; &amp;nbsp;fails" style="text;html=1;align=center;verticalAlign=middle;resizable=0;points=[];autosize=1;strokeColor=none;fillColor=none;" vertex="1" parent="1">
          <mxGeometry x="485" y="318" width="50" height="30" as="geometry" />
        </mxCell>
      </root>
    </mxGraphModel>
  </diagram>
</mxfile>
